<?xml version="1.0" encoding="utf-8"?>
<!-- Generator: Adobe Illustrator 19.0.0, SVG Export Plug-In . SVG Version: 6.00 Build 0)  -->
<svg version="1.1" id="Livello_2" xmlns="http://www.w3.org/2000/svg" xmlns:xlink="http://www.w3.org/1999/xlink" x="0px" y="0px"
	 viewBox="0 0 719.6 414.8" style="enable-background:new 0 0 719.6 414.8;" xml:space="preserve">
<style type="text/css">
	.st0{fill:none;stroke:#000000;stroke-miterlimit:10;}
</style>
<g id="XMLID_180_">
	<g id="XMLID_143_">
		<path id="XMLID_397_" d="M575.3,1c9.4,0,17,7.6,17,17v320.8c0,9.4-7.6,17-17,17h-26l0-163.7v-1h-1H45h-1v1l0,163.7H18
			c-9.4,0-17-7.6-17-17V18C1,8.6,8.6,1,18,1H575.3 M575.3,0H18C8.1,0,0,8,0,18v320.8c0,9.9,8,18,18,18h27L45,192h503.3l0,164.7h27
			c9.9,0,18-8,18-18V18C593.3,8,585.2,0,575.3,0L575.3,0z"/>
	</g>
	<g id="XMLID_139_">
		<path id="XMLID_142_" class="st0" d="M112.4,292.6h-5.3c-4.8,0-8.7-3.9-8.7-8.7v-66c0-4.8,3.9-8.7,8.7-8.7h5.3
			c4.8,0,8.7,3.9,8.7,8.7v66C121.1,288.8,117.2,292.6,112.4,292.6z"/>
		<line id="XMLID_141_" class="st0" x1="98.4" y1="218" x2="98.4" y2="192"/>
		<line id="XMLID_140_" class="st0" x1="121.1" y1="218" x2="121.1" y2="192"/>
	</g>
	<g id="XMLID_135_">
		<path id="XMLID_138_" class="st0" d="M176,292.6h-5.3c-4.8,0-8.7-3.9-8.7-8.7v-66c0-4.8,3.9-8.7,8.7-8.7h5.3
			c4.8,0,8.7,3.9,8.7,8.7v66C184.7,288.8,180.8,292.6,176,292.6z"/>
		<line id="XMLID_137_" class="st0" x1="162" y1="218" x2="162" y2="192"/>
		<line id="XMLID_136_" class="st0" x1="184.7" y1="218" x2="184.7" y2="192"/>
	</g>
	<g id="XMLID_131_">
		<path id="XMLID_134_" class="st0" d="M300.7,292.6h-5.3c-4.8,0-8.7-3.9-8.7-8.7v-66c0-4.8,3.9-8.7,8.7-8.7h5.3
			c4.8,0,8.7,3.9,8.7,8.7v66C309.4,288.8,305.5,292.6,300.7,292.6z"/>
		<line id="XMLID_133_" class="st0" x1="286.7" y1="218" x2="286.7" y2="192"/>
		<line id="XMLID_132_" class="st0" x1="309.4" y1="218" x2="309.4" y2="192"/>
	</g>
	<g id="XMLID_127_">
		<path id="XMLID_130_" class="st0" d="M362.5,292.6h-5.3c-4.8,0-8.7-3.9-8.7-8.7v-66c0-4.8,3.9-8.7,8.7-8.7h5.3
			c4.8,0,8.7,3.9,8.7,8.7v66C371.2,288.8,367.3,292.6,362.5,292.6z"/>
		<line id="XMLID_129_" class="st0" x1="348.5" y1="218" x2="348.5" y2="192"/>
		<line id="XMLID_128_" class="st0" x1="371.2" y1="218" x2="371.2" y2="192"/>
	</g>
	<g id="XMLID_123_">
		<path id="XMLID_126_" class="st0" d="M423.1,292.6h-5.3c-4.8,0-8.7-3.9-8.7-8.7v-66c0-4.8,3.9-8.7,8.7-8.7h5.3
			c4.8,0,8.7,3.9,8.7,8.7v66C431.8,288.8,427.9,292.6,423.1,292.6z"/>
		<line id="XMLID_125_" class="st0" x1="409.1" y1="218" x2="409.1" y2="192"/>
		<line id="XMLID_124_" class="st0" x1="431.8" y1="218" x2="431.8" y2="192"/>
	</g>
	<g id="XMLID_120_">
		<path id="XMLID_122_" class="st0" d="M91.3,192v219.9c0,1.3-1.1,2.4-2.4,2.4H71.1c-1.3,0-2.4-1.1-2.4-2.4V192"/>
		<line id="XMLID_121_" class="st0" x1="68.6" y1="273.5" x2="91.3" y2="273.5"/>
	</g>
	<g id="XMLID_117_">
		<path id="XMLID_119_" class="st0" d="M153.6,192v219.9c0,1.3-1.1,2.4-2.4,2.4h-17.8c-1.3,0-2.4-1.1-2.4-2.4V192"/>
		<line id="XMLID_118_" class="st0" x1="130.9" y1="273.5" x2="153.6" y2="273.5"/>
	</g>
	<g id="XMLID_114_">
		<path id="XMLID_116_" class="st0" d="M215.3,192v219.9c0,1.3-1.1,2.4-2.4,2.4h-17.8c-1.3,0-2.4-1.1-2.4-2.4V192"/>
		<line id="XMLID_115_" class="st0" x1="192.6" y1="273.5" x2="215.3" y2="273.5"/>
	</g>
	<g id="XMLID_111_">
		<path id="XMLID_113_" class="st0" d="M277.6,192v219.9c0,1.3-1.1,2.4-2.4,2.4h-17.8c-1.3,0-2.4-1.1-2.4-2.4V192"/>
		<line id="XMLID_112_" class="st0" x1="254.9" y1="273.5" x2="277.6" y2="273.5"/>
	</g>
	<g id="XMLID_108_">
		<path id="XMLID_110_" class="st0" d="M339.9,192v219.9c0,1.3-1.1,2.4-2.4,2.4h-17.8c-1.3,0-2.4-1.1-2.4-2.4V192"/>
		<line id="XMLID_109_" class="st0" x1="317.3" y1="273.5" x2="339.9" y2="273.5"/>
	</g>
	<g id="XMLID_105_">
		<path id="XMLID_107_" class="st0" d="M402.3,192v219.9c0,1.3-1.1,2.4-2.4,2.4h-17.8c-1.3,0-2.4-1.1-2.4-2.4V192"/>
		<line id="XMLID_106_" class="st0" x1="379.6" y1="273.5" x2="402.3" y2="273.5"/>
	</g>
	<g id="XMLID_102_">
		<path id="XMLID_104_" class="st0" d="M463.9,192v219.9c0,1.3-1.1,2.4-2.4,2.4h-17.8c-1.3,0-2.4-1.1-2.4-2.4V192"/>
		<line id="XMLID_103_" class="st0" x1="441.3" y1="273.5" x2="463.9" y2="273.5"/>
	</g>
	<g id="XMLID_99_">
		<path id="XMLID_101_" class="st0" d="M526.3,192v219.9c0,1.3-1.1,2.4-2.4,2.4h-17.8c-1.3,0-2.4-1.1-2.4-2.4V192"/>
		<line id="XMLID_100_" class="st0" x1="503.6" y1="273.5" x2="526.3" y2="273.5"/>
	</g>
	<g id="XMLID_98_">
		<path id="XMLID_393_" d="M211,114.6c6.3,0,11.4,5.1,11.4,11.4s-5.1,11.4-11.4,11.4c-6.3,0-11.4-5.1-11.4-11.4
			S204.7,114.6,211,114.6 M211,113.6c-6.8,0-12.4,5.5-12.4,12.4s5.5,12.4,12.4,12.4s12.4-5.5,12.4-12.4S217.9,113.6,211,113.6
			L211,113.6z"/>
	</g>
	<g id="XMLID_97_">
		<path id="XMLID_389_" d="M297.7,114.6c6.3,0,11.4,5.1,11.4,11.4s-5.1,11.4-11.4,11.4s-11.4-5.1-11.4-11.4S291.4,114.6,297.7,114.6
			 M297.7,113.6c-6.8,0-12.4,5.5-12.4,12.4s5.5,12.4,12.4,12.4s12.4-5.5,12.4-12.4S304.6,113.6,297.7,113.6L297.7,113.6z"/>
	</g>
	<g id="XMLID_96_">
		<path id="XMLID_274_" d="M400.3,114.6c6.3,0,11.4,5.1,11.4,11.4s-5.1,11.4-11.4,11.4s-11.4-5.1-11.4-11.4S394.1,114.6,400.3,114.6
			 M400.3,113.6c-6.8,0-12.4,5.5-12.4,12.4s5.5,12.4,12.4,12.4s12.4-5.5,12.4-12.4S407.2,113.6,400.3,113.6L400.3,113.6z"/>
	</g>
	<g id="XMLID_95_">
		<path id="XMLID_270_" d="M461.3,114.6c6.3,0,11.4,5.1,11.4,11.4s-5.1,11.4-11.4,11.4s-11.4-5.1-11.4-11.4S455,114.6,461.3,114.6
			 M461.3,113.6c-6.8,0-12.4,5.5-12.4,12.4s5.5,12.4,12.4,12.4s12.4-5.5,12.4-12.4S468.1,113.6,461.3,113.6L461.3,113.6z"/>
	</g>
</g>
</svg>
