**ABCDEFGHIJKLMNOPQRSTUVWXYZabcdefghijklmnopqrstuvwxyz**************************
**PARASOLID !"#$%&'()*+,-./:;<=>?@[\]^_`{|}~0123456789**************************
**PART1;
MC=CBI6P034;
MC_MODEL=unknown;
MC_ID=unknown;
OS=Windows NT;
OS_RELEASE=6.2;
FRU=Unigraphics Solutions;
APPL=SolidEdge;
SITE=Huntsville, AL;
USER=gibbens
FORMAT=text;
GUISE=transmit;
KEY=C:\Users\gibbens\Documents\Arduino\Pedals\prototype\LeftRailHolder;
FILE=C:\Users\gibbens\Documents\Arduino\Pedals\prototype\LeftRailHolder.x_t;
DATE=Sun, Sep 20 20;
**PART2;
SCH=SCH_3300171_32001;
USFLD_SIZE=0;
**PART3;
**END_OF_HEADER*****************************************************************
T51 : TRANSMIT FILE created by modeller version 330017123 SCH_3300171_32001_1300
6229 0 12 34 CCCCCCI4 mesh1006 0 I8 polyline1008 0 CCCCCCCDI5 owner1040 0 CCCCCC
I13 boundary_mesh1006 0 I17 boundary_polyline1008 0 CCCA16 index_map_offset0 0 1
 dA9 index_map82 0 A17 node_id_index_map82 0 A20 schema_embedding_map82 0 A5 chi
ld12 0 A14 lowest_node_id0 0 1 dA16 mesh_offset_data206 0 Z1 84737 2 3 4 5 0 0 0
 0 1e3 1e-8 0 6 0 1 0 1 1 7 8 9 10 0 0 11 12 13 0 0 0 0 0 0 0 81 255 3 2 84713 1
4 1 15 0 15 0 16 17 18 70 11 CI9 list_type0 0 1 uI10 notransmit0 0 1 lCCCDCCDI12
 finger_index0 0 1 dI12 finger_block1012 0 CZ3 0 4 T1 0 0 9 20 1 19 19 50 255 4
 67268 0 1 20 0 0 +-.02266305546993485 .0818961542152952 .05054 120469236584698e
-30 -1 0 0 0 -1 30 255 5 82380 0 1 21 0 0 +.001 .01374375774660554 .011 -1 0 0 1
3 255 7 40802 0 1 0 22 0 0 23 0 50 8 84711 0 24 25 0 0 +-.003 -.0074084089798197
1 .004 0 1 0 0 0 1 30 9 84710 0 26 27 0 0 +0 -.00740840897981972 .011 1 17347234
75976805e-30 0 29 255 10 84706 0 28 29 0 -.004 -.00740840897981971 .011 19 8 CCC
CCCCA5 owner12 0 Z11 80745 0 1 23 0 30 V0 16 255 12 43588 0 ?31 0 32 33 0 0 1 18
 255 13 84047 0 34 0 35 36 ?1 17 255 34 0 37 38 39 13 40 41 0 42 +18 35 43899 0
 43 13 44 45 ?1 29 36 84051 0 13 46 47 -.004 .00770171589910204 .014 29 46 83758
 0 48 49 36 -.004 -.00729828410089796 .014 29 47 84703 0 50 36 51 -.004 -.007408
40897981971 .014 18 50 43775 0 52 53 48 47 ?1 29 51 84704 0 53 47 29 .004 -.0074
0840897981971 .014 18 53 43878 0 54 55 50 51 ?1 29 29 84705 0 56 51 10 .004 -.00
740840897981971 .011 18 56 43877 0 57 28 58 29 ?1 17 57 0 59 54 60 56 61 26 0 62
 +18 28 43876 0 60 63 56 10 ?1 18 58 43890 0 64 56 65 66 ?1 17 64 0 67 68 69 58
 70 71 0 72 +18 65 43776 0 73 58 74 75 ?1 29 66 75942 0 58 76 45 .004 -.00429828
4100897965 .03804797848538695 29 76 75773 0 63 77 66 .004 -.01704828410089795 .0
04 29 45 83749 0 35 66 78 -.004 -.01704828410089795 .011 29 78 83750 0 79 45 80
 -.004 -.01704828410089795 .004 18 79 43898 0 81 44 63 78 ?1 29 80 83754 0 82 78
 83 -.004 .00770171589910204 .03504797848538695 18 82 43778 0 84 85 86 80 ?1 29
 83 83755 0 87 80 75 -.004 .00470171589910204 .03804797848538695 18 87 43777 0 8
8 86 55 83 ?1 29 75 83756 0 65 83 49 -.004 -.004298284100897965 .038047978485386
95 29 49 83757 0 89 75 46 -.004 -.00729828410089797 .03504797848538695 18 89 438
94 0 90 74 85 49 ?1 17 90 0 91 92 70 89 73 93 0 94 -18 74 43806 0 95 65 89 96 ?1
 18 85 43883 0 97 89 82 98 ?1 17 97 0 99 100 101 85 102 103 0 104 -29 98 75767 0
 85 105 106 .004 .00770171589910204 .03504797848538695 29 105 84537 0 107 108 98
 .004 .01745171589910205 .004 29 106 75768 0 86 98 96 .004 .00470171589910204 .0
3804797848538695 18 86 43891 0 68 82 87 106 ?1 29 96 75769 0 74 106 109 .004 -.0
0729828410089797 .03504797848538695 29 109 75770 0 55 96 77 .004 -.0072982841008
9797 .014 18 55 43885 0 110 87 53 109 ?1 29 77 75772 0 44 109 76 .004 -.01704828
410089795 .011 18 44 43897 0 111 35 79 77 ?1 17 111 0 112 113 114 44 115 32 0 11
6 -15 255 112 44541 0 114 117 0 17 113 0 112 118 111 35 119 120 0 121 +17 114 0
 112 111 118 63 122 123 0 0 -17 115 0 99 31 116 63 111 32 0 114 +16 32 43587 0 ?
115 12 124 125 0 0 1 17 116 0 99 115 62 44 126 127 0 119 +15 99 68974 0 31 128 1
29 17 62 0 99 116 130 56 54 131 0 126 -17 126 0 132 61 119 56 116 127 0 0 -16 12
7 43586 0 ?116 120 26 133 0 0 1 17 119 0 132 126 121 44 113 120 0 0 -15 132 4456
7 0 61 134 0 17 121 0 132 119 61 35 135 136 0 0 -16 120 43738 0 ?113 136 127 137
 0 0 1 16 136 43741 0 ?135 138 120 139 0 0 1 30 137 76274 0 120 140 141 0 +-.001
 -.01704828410089795 .011 -1 0 0 31 255 140 76233 0 142 33 137 0 +.004 .00020171
589910204 .0285 -1 0 0 0 0 1 .00525 30 141 76276 0 123 137 143 0 +-.001 -.017048
28410089795 .004 -1 0 0 16 123 43669 0 ?122 144 145 141 0 0 1 30 143 76469 0 146
 141 147 0 -.001 .00770171589910204 .03504797848538695 -1 0 0 16 146 43713 0 ?10
4 148 149 143 0 0 1 30 147 76470 0 150 143 151 0 +.005 .00470171589910204 .03804
797848538695 -1 0 0 16 150 43735 0 ?152 149 153 147 0 0 1 30 151 76471 0 71 147
 154 0 -.005 -.004298284100897965 .03804797848538695 -1 0 0 16 71 43733 0 ?64 14
5 93 151 0 0 1 30 154 76472 0 155 151 156 0 +.001 -.00729828410089797 .035047978
48538695 -1 0 0 16 155 43720 0 ?94 93 148 154 0 0 1 30 156 76473 0 157 154 139 0
 +-.003 -.00729828410089796 .014 1 0 0 16 157 43721 0 ?158 159 160 156 0 0 1 30
 139 83761 0 136 156 161 0 +-.004 -.01104828410089796 .011 -4336808689942025e-32
 1 0 30 161 83762 0 124 139 162 0 +-.004 -.01704828410089795 .006 0 0 -1 16 124
 43739 0 ?118 32 138 161 0 0 1 30 162 83763 0 163 161 164 0 +-.004 -.00579828420
892514 .004 0 -1 0 16 163 43529 0 ?81 165 166 162 0 0 1 30 164 83766 0 166 162 1
67 0 +-.004 .00770171589910204 .02515878826626525 0 0 -1 16 166 43526 0 ?168 163
 159 164 0 0 1 31 167 83767 0 149 164 169 0 +-.004 .00470171589910204 .035047978
48538695 -1 0 0 0 0 1 .003 16 149 43535 0 ?170 146 150 167 0 0 1 30 169 83768 0
 153 167 171 0 +-.004 .00020171589910204 .03804797848538695 0 1 0 16 153 43534 0
 ?88 150 142 169 0 0 1 31 171 83769 0 93 169 172 0 +-.004 -.004298284100897965 .
03504797848538695 -1 0 0 0 0 1 .003 16 93 43533 0 ?73 71 155 171 0 0 1 30 172 83
770 0 165 171 173 0 +-.004 -.00729828410089797 .004 0 71644723279648e-30 1 16 16
5 43532 0 ?174 103 163 172 0 0 1 30 173 83771 0 175 172 176 0 +-.004 -.011048284
10089796 .014 0 1 -1734723475976805e-31 16 175 43531 0 ?177 178 179 173 0 0 1 31
 176 83773 0 180 173 181 0 +-.004 .00020171589910204 .0285 -1 0 0 0 0 1 .00525 1
6 180 43725 0 ?182 142 183 176 0 0 1 31 181 83811 0 138 176 184 0 +0 -.013548284
10089796 .011 0 0 1 0 -1 0 .001375 16 138 43740 0 ?185 124 136 181 0 0 1 31 184
 83812 0 144 181 186 0 +0 -.01354828410089796 .004 0 0 1 0 -1 0 .001375 16 144 4
3673 0 ?187 26 123 184 0 0 1 30 186 84707 0 160 184 188 0 +-.004 -.0074084089798
1971 .004 0 0 1 16 160 43530 0 ?52 157 189 186 0 0 1 30 188 84708 0 159 186 27 0
 +-.003 -.00740840897981971 .014 1 0 0 16 159 43717 0 ?190 166 157 188 0 0 1 30
 27 84709 0 131 188 9 0 +.004 -.00740840897981971 .004 0 0 1 16 131 43707 0 ?54
 189 178 27 0 0 1 17 54 0 59 191 57 53 62 131 0 190 +16 189 43718 0 ?110 160 131
 192 0 0 1 16 178 43734 0 ?68 131 175 193 0 0 1 17 68 0 67 152 64 86 72 178 0 10
0 +30 193 76195 0 178 194 195 0 +.004 .00020171589910204 .03804797848538695 0 1
 0 31 194 76194 0 148 196 193 0 -.004 .00470171589910204 .03504797848538695 -1 0
 0 0 0 1 .003 31 195 76196 0 145 193 197 0 -.004 -.004298284100897965 .035047978
48538695 -1 0 0 0 0 1 .003 16 145 43585 0 ?95 123 71 195 0 0 1 30 197 76197 0 18
3 195 192 0 +.004 -.00729828410089797 .004 0 71644723279648e-30 1 16 183 43719 0
 ?198 180 103 197 0 0 1 30 192 76198 0 189 197 133 0 +.004 -.01104828410089796 .
014 0 1 -1734723475976805e-31 30 133 76200 0 127 192 125 0 +.004 -.0160482841008
9795 .011 0 -1 0 30 125 76201 0 32 133 33 0 +.004 -.01704828410089795 .006 0 0 -
1 30 33 76202 0 12 125 140 0 +.004 .0563431383609063 .004 0 1 0 17 198 0 199 94
 158 74 200 183 0 92 +16 103 43710 0 ?102 183 165 196 0 0 1 17 102 0 201 42 104
 202 97 103 0 0 +30 196 76193 0 103 203 194 0 +.004 .00770171589910204 .02515878
826626525 0 0 -1 30 203 84499 0 179 204 196 0 +0 .01145171589910206 .011 1 -1734
723475976805e-30 0 16 179 84270 0 ?205 175 206 203 0 0 1 30 204 84500 0 206 207
 203 0 +-.003 .01145171589910204 .014 1 0 0 16 206 84264 0 ?208 179 209 204 0 0
 1 30 207 84501 0 209 210 204 0 +-.003 .00770171589910204 .014 1 0 0 16 209 8425
6 0 ?38 206 211 207 0 0 1 31 210 84506 0 211 212 207 0 +0 .01395171589910204 .01
1 0 0 -1 0 1 0 .001375 16 211 84267 0 ?213 209 214 210 0 0 1 30 212 84507 0 214
 215 210 0 +-.001 .01745171589910205 .011 -1 0 0 16 214 84276 0 ?216 211 217 212
 0 0 1 31 215 84508 0 217 218 212 0 +0 .01395171589910204 .004 0 0 -1 0 1 0 .001
375 16 217 84195 0 ?219 214 220 215 0 0 1 30 218 84509 0 220 221 215 0 +-.001 .0
1745171589910205 .004 -1 0 0 16 220 84189 0 ?222 217 223 218 0 0 1 30 221 84512
 0 223 224 218 0 +.004 .01745171589910205 .006 0 0 -1 16 223 84192 0 ?225 220 22
6 221 0 0 1 30 224 84513 0 226 227 221 0 +.004 .01645171589910205 .011 0 1 0 16
 226 84273 0 ?228 223 229 224 0 0 1 30 227 84514 0 229 230 224 0 +.004 .01145171
589910204 .004 0 0 1 16 229 84177 0 ?231 226 232 227 0 0 1 30 230 84515 0 232 23
3 227 0 +.004 .01145171589910204 .014 0 -1 -1734723475976805e-31 16 232 84180 0
 ?101 229 234 230 0 0 1 30 233 84523 0 234 235 230 0 +-.004 .01745171589910205 .
006 0 0 -1 16 234 84174 0 ?236 232 41 233 0 0 1 30 235 84530 0 41 237 233 0 +-.0
04 .01145171589910204 .014 0 -1 -1734723475976805e-31 16 41 84253 0 ?34 234 238
 235 0 0 1 30 237 84531 0 238 239 235 0 +-.004 .01145171589910204 .004 0 0 1 16
 238 84261 0 ?240 41 241 237 0 0 1 30 239 84532 0 241 0 237 0 +-.004 .0114517158
9910206 .011 -4336808689942025e-32 -1 0 16 241 84279 0 ?242 238 0 239 0 0 1 17 2
42 0 243 205 216 244 245 241 0 0 +15 243 84471 0 205 246 0 17 205 0 243 228 242
 247 248 179 0 249 +17 216 0 243 242 228 250 251 214 0 252 +18 244 84314 0 248 2
53 0 254 ?1 17 245 0 255 236 256 250 242 241 0 0 -15 255 84063 0 177 257 258 17
 236 0 255 81 245 259 252 234 0 0 +17 256 0 255 245 40 244 240 238 0 242 -18 250
 84316 0 216 202 259 260 ?1 18 202 84296 0 38 261 250 262 ?1 18 259 84302 0 263
 250 253 264 ?1 29 260 84547 0 250 264 262 -.004 .01745171589910205 .011 29 264
 84548 0 259 265 260 -.004 .01745171589910205 .004 29 262 84541 0 202 260 266 .0
04 .00770171589910205 .014 29 266 84540 0 261 262 267 .004 .01145171589910204 .0
14 18 261 84313 0 208 247 202 266 ?1 29 267 84539 0 247 266 108 .004 .0114517158
9910204 .011 18 247 84315 0 205 268 261 267 ?1 29 108 84538 0 268 267 105 .004 .
01745171589910205 .011 18 268 84304 0 251 107 247 108 ?1 17 251 0 269 225 252 26
8 216 214 0 228 -18 107 84303 0 31 48 268 105 ?1 17 31 0 99 270 115 107 271 12 0
 272 +18 48 43886 0 273 50 107 46 ?1 17 273 0 199 158 94 48 174 165 0 177 -15 19
9 44436 0 198 274 0 17 158 0 199 198 273 55 275 157 0 200 +17 94 0 199 273 198 8
9 92 155 0 174 +17 174 0 255 73 177 89 273 165 0 0 +17 177 0 255 174 52 48 276 1
75 0 275 +17 52 0 255 177 135 50 60 160 0 276 +17 276 0 277 190 275 50 177 175 0
 191 -17 275 0 277 276 110 48 158 157 0 0 -15 277 44428 0 276 278 0 17 110 0 277
 275 190 55 130 189 0 158 +17 190 0 277 110 276 53 191 159 0 130 +17 130 0 99 62
 200 53 110 189 0 0 -17 200 0 99 130 95 55 198 183 0 0 -17 95 0 99 200 72 74 279
 145 0 198 +17 72 0 99 95 100 58 68 178 0 279 -17 279 0 91 70 92 58 95 145 0 0 -
15 91 44501 0 279 280 0 17 70 0 91 90 279 65 64 71 0 0 -17 92 0 91 279 90 74 94
 155 0 0 -14 255 280 44494 281 ?282 274 91 7 283 +0 0 282 274 30 81 1 281 84723
 284 280 285 0 286 287 288 14 282 44470 287 ?289 280 67 7 290 +0 0 289 280 30 14
 274 44429 286 ?280 278 199 7 291 +0 0 280 278 30 51 255 283 76974 0 280 292 293
 0 +.001 -.004298284100897965 .03504797848538695 -1 0 0 .003 0 0 1 13 30 83687 0
 0 0 0 0 0 11 22 14 22 44397 294 ?257 0 201 7 295 +0 0 257 0 30 81 1 294 84736 2
96 22 297 0 298 299 300 14 257 44551 299 ?134 22 255 7 301 +0 0 134 22 30 15 201
 65403 0 102 22 0 50 295 76966 0 22 302 303 0 +.001 .00770171589910204 .02515878
826626525 0 1 0 0 0 1 50 302 76965 0 304 305 295 0 +0 -.005 .004 0 0 1 1 0 0 50
 303 76967 0 278 295 291 0 +-.003 -.01104828410089796 .014 0 -1734723475976805e-
31 -1 0 1 -1734723475976805e-31 14 278 44421 306 ?274 24 277 7 303 -0 0 274 24 3
0 50 291 76968 0 274 303 307 0 +.001 -.00729828410089797 .004 0 -1 7164472327964
8e-30 0 -71644723279648e-30 -1 51 307 76969 0 308 291 290 0 +.001 .0002017158991
0204 .0285 -1 0 0 .00525 0 0 1 14 308 44445 309 ?310 289 311 7 307 -0 0 310 289
 30 50 290 76972 0 282 307 292 0 +.005 .00770171589910204 .03804797848538695 0 0
 1 1 0 0 51 292 76973 0 289 290 283 0 +.005 .00470171589910204 .0350479784853869
5 -1 0 0 .003 0 0 1 14 289 44478 312 ?308 282 313 7 292 +0 0 308 282 30 81 1 312
 84725 284 289 314 0 287 309 315 15 313 44485 0 316 289 0 17 316 0 313 317 318 8
5 100 148 0 0 -17 317 0 313 319 316 82 104 146 0 0 -17 318 0 313 316 319 86 152
 150 0 0 -17 100 0 99 72 97 86 316 148 0 318 +16 148 43584 0 ?100 155 146 194 0
 0 1 17 319 0 313 318 317 87 170 149 0 152 -17 152 0 67 69 68 87 318 150 0 0 +15
 67 44477 0 69 282 0 17 69 0 67 64 152 65 88 153 0 70 -17 88 0 255 170 73 87 69
 153 0 319 +17 170 0 255 168 88 82 319 149 0 317 +17 73 0 255 88 174 65 90 93 0
 69 +17 168 0 255 40 170 13 84 166 0 0 +17 40 0 255 256 168 253 34 41 0 0 -17 84
 0 201 104 42 82 168 166 0 170 -17 104 0 201 102 84 85 317 146 0 316 +17 42 0 20
1 84 102 13 38 209 0 168 -17 38 0 37 320 34 202 42 209 0 101 +15 37 84452 0 34 3
21 0 17 320 0 37 39 38 261 101 232 0 231 -17 101 0 99 97 231 202 320 232 0 102 +
17 231 0 99 101 322 261 249 229 0 0 +17 322 0 99 231 270 247 228 226 0 0 -17 249
 0 323 248 208 247 231 229 0 322 -15 323 84461 0 240 324 0 17 248 0 323 240 249
 244 205 179 0 256 -17 208 0 323 249 240 261 39 206 0 320 +17 240 0 323 208 248
 253 256 238 0 40 +17 39 0 37 34 320 253 208 206 0 240 -18 253 84312 0 39 259 24
4 265 ?1 29 265 84555 0 253 254 264 -.004 .01145171589910204 .014 29 254 84556 0
 244 0 265 -.004 .01145171589910204 .011 14 324 84453 325 ?246 321 323 7 326 -0
 0 246 321 30 81 1 325 84734 284 324 327 0 328 329 330 14 246 84462 329 ?0 324 3
31 7 332 -0 0 0 324 30 14 321 84444 328 ?324 333 37 7 334 -0 0 324 333 30 50 326
 84483 0 324 334 332 0 +-.003 .01145171589910204 .004 0 -1 0 0 0 1 50 334 84484
 0 321 335 326 0 +-.003 .01145171589910204 .014 0 1734723475976805e-31 -1 0 -1 -
1734723475976805e-31 50 332 84482 0 246 326 336 0 +0 .00540343179820408 .011 0 0
 -1 -1 0 0 50 336 76942 0 134 332 305 0 +0 -.005 .011 0 0 -1 -1 0 0 14 134 44559
 337 ?24 257 338 7 336 -0 0 24 257 30 50 305 76956 0 117 336 302 0 +-.001 -.0170
4828410089795 .006 0 -1 0 0 0 -1 14 117 44534 339 ?304 310 112 7 305 +0 0 304 31
0 30 81 1 339 84728 284 117 340 0 341 342 343 14 304 44234 342 ?128 117 344 7 30
2 -0 0 128 117 30 14 310 44542 341 ?117 308 345 7 25 +0 0 117 308 30 81 1 341 84
727 284 310 346 0 309 339 347 15 345 44549 0 185 310 348 51 25 83813 0 310 301 8
 0 -0 -.01354828410089796 .006 0 0 -1 .001375 -1 0 0 50 301 83774 0 257 293 25 0
 +-.004 -.01104828410089796 .006 -1 -4336808689942025e-32 0 4336808689942025e-32
 -1 0 50 293 76977 0 128 283 301 0 +.004 .0518175500631178 -.02110072852878375 -
1 0 0 0 1 1850371707708595e-30 14 128 48505 349 ?350 304 99 7 293 -0 0 350 304 3
0 81 1 349 84730 284 128 351 0 342 352 353 14 350 84379 352 ?333 128 269 7 354 +
0 0 333 128 30 81 1 352 84731 284 350 355 0 349 356 357 14 333 84388 356 ?321 35
0 358 7 335 +0 0 321 350 30 15 269 84387 0 222 350 0 50 354 84491 0 350 0 335 0
 +-.001 .01745171589910205 .006 0 1 0 0 0 -1 51 335 84490 0 333 354 334 0 -0 .01
395171589910204 .006 0 0 -1 .001375 -1 0 0 17 222 0 269 252 225 259 272 220 0 23
6 +17 252 0 269 251 222 250 236 234 0 245 -17 225 0 269 222 251 107 270 223 0 0
 +17 272 0 344 271 263 107 222 220 0 225 -15 344 44241 0 122 304 359 17 271 0 34
4 122 272 63 31 12 0 115 -17 263 0 344 272 122 259 81 163 0 222 -17 122 0 344 26
3 271 79 114 123 0 0 +17 81 0 255 43 236 79 263 163 0 118 +17 43 0 255 135 81 35
 118 124 0 113 -17 118 0 112 114 113 79 43 124 0 122 +17 135 0 255 52 43 28 121
 136 0 61 +17 61 0 132 121 126 28 57 26 0 0 -16 26 43706 0 ?57 127 144 9 0 0 1 1
8 63 43856 0 271 79 28 76 ?1 15 359 44243 0 187 304 360 17 187 0 359 187 187 0 3
61 144 0 0 +15 360 84378 0 362 304 0 17 362 0 360 362 362 0 219 217 0 0 -17 219
 0 363 219 219 0 362 217 0 0 +15 363 84397 0 219 333 0 17 361 0 348 361 361 0 18
7 144 0 0 -15 348 44550 0 361 310 0 17 270 0 99 322 31 268 225 223 0 0 -81 1 356
 84732 284 333 364 0 352 328 365 15 358 84396 0 366 333 363 17 366 0 358 366 366
 0 213 211 0 0 -17 213 0 331 213 213 0 366 211 0 0 +15 331 84470 0 213 246 243 8
0 255 1 284 367 368 9000 0 0 0 0 3 5 0 0 0 FFTTTTTTFFFFTF1 81 1 364 84677 369 33
3 370 356 355 371 0 81 1 328 84733 284 321 371 0 356 325 372 82 255 5 365 2 1074
198647 0 0 0 81 1 371 84678 369 321 373 328 364 327 0 82 5 372 2 1074198647 0 0
 0 80 1 369 374 375 9000 1 1 1 1 1 1 1 1 0 FFFFTFTTFFFFFF1 81 1 373 84614 376 32
1 377 371 370 378 379 81 1 327 84679 369 324 378 325 371 380 0 81 1 378 84615 37
6 324 381 327 373 382 383 81 1 380 84680 369 246 382 329 327 384 0 81 1 382 8461
6 376 246 385 380 378 386 387 81 1 329 84735 284 246 380 0 325 0 388 81 1 384 84
714 369 257 386 299 380 389 0 81 1 386 84617 376 257 390 384 382 391 392 81 1 29
9 84737 296 257 384 0 294 0 393 81 1 389 84715 369 134 394 337 384 395 0 81 1 39
4 83595 376 134 396 389 0 397 398 81 1 337 84719 284 134 389 0 0 399 400 81 1 39
5 84716 369 24 397 399 389 401 0 14 24 44381 399 ?278 134 59 7 8 -0 0 278 134 30
 81 1 397 83596 376 24 402 395 394 403 404 81 1 399 84720 284 24 395 0 337 306 4
05 81 1 401 84717 369 278 403 306 395 351 0 81 1 403 83597 376 278 406 401 397 4
07 408 81 1 306 84721 284 278 401 0 399 286 409 81 1 351 84718 369 128 410 349 4
01 0 0 81 1 410 84619 376 128 411 351 391 0 412 80 1 376 413 414 9000 0 0 0 0 3
 6 0 0 0 FFFFTFFFFFFFFF1 81 1 411 83610 376 128 415 410 416 417 418 81 1 391 846
18 376 304 416 419 386 410 420 82 1 412 801 81 1 416 83609 376 304 421 391 422 4
11 423 81 1 419 84674 369 304 391 342 340 355 0 82 1 420 801 81 1 342 84729 284
 304 419 0 339 349 424 81 1 340 84673 369 117 422 339 346 419 0 81 1 355 84676 3
69 350 425 352 419 364 0 81 1 425 84612 376 350 426 355 427 370 428 81 3 426 846
01 429 350 430 425 431 432 433 434 0 81 1 427 84058 376 22 435 431 417 425 436 8
1 1 370 84613 376 333 432 364 425 373 437 82 1 428 801 81 3 432 84604 429 333 43
8 370 426 377 439 440 0 82 1 437 801 80 3 429 441 442 9000 0 0 0 0 3 6 0 0 0 FFF
FTFTTFFFFFF1 1 3 81 1 438 84392 296 333 443 432 430 444 445 81 3 377 84606 429 3
21 444 373 432 381 446 447 0 82 1 439 2 82 1 440 1 81 1 444 84448 296 321 448 37
7 438 449 450 81 3 381 84608 429 324 451 378 377 385 452 453 0 82 1 446 2 82 1 4
47 2 81 2 451 84457 454 324 455 381 456 457 458 459 81 3 385 84610 429 246 298 3
82 381 0 460 461 0 82 1 452 2 82 1 453 3 81 1 298 84466 296 246 462 385 449 294
 463 82 1 460 2 82 1 461 4 80 1 296 0 464 8001 0 0 0 0 3 5 0 0 0 FFFFTFTFFFFFFF2
 81 1 462 84467 465 246 457 298 455 0 466 81 1 449 84459 296 324 0 455 444 298 4
67 83 255 3 463 .466666668653488 .466666668653488 .533333361148834 81 1 455 8445
8 465 324 449 451 448 462 468 83 3 467 .466666668653488 .466666668653488 .533333
361148834 80 1 465 454 469 8015 0 0 0 0 3 5 0 0 0 FFFFTFFFFFFFFF2 81 1 448 84449
 465 321 456 444 443 455 470 83 1 468 0 81 2 456 84450 454 321 0 448 471 451 472
 473 81 1 443 84393 465 333 471 438 474 448 475 83 1 470 0 81 2 471 84394 454 33
3 0 443 476 456 477 478 81 1 474 84384 465 350 476 430 479 443 480 83 1 475 0 81
 2 476 84385 454 350 0 474 481 471 482 483 81 1 430 84383 296 350 474 426 484 43
8 485 81 1 479 84060 465 22 431 481 486 474 487 83 1 480 0 81 3 431 84059 429 22
 427 479 435 426 488 489 0 81 2 481 84061 454 22 479 297 490 476 491 492 81 1 48
6 83684 465 257 490 390 493 479 494 83 1 487 0 81 2 490 83683 454 257 495 486 49
6 481 497 498 81 3 390 83690 429 257 486 386 495 435 499 500 0 81 1 493 83544 46
5 128 484 496 501 486 502 83 1 494 0 81 1 484 83543 296 128 0 493 503 430 504 81
 2 496 83545 454 128 493 415 505 490 506 507 81 1 501 44564 465 134 503 505 508
 493 509 83 1 502 0 81 1 503 44565 296 134 0 501 510 484 511 81 2 505 44563 454
 134 501 396 512 496 513 514 81 1 508 44547 465 310 510 512 515 501 516 83 1 509
 0 81 1 510 44548 296 310 0 508 517 503 518 81 2 512 44546 454 310 508 519 520 5
05 521 522 81 1 515 44539 465 117 517 520 523 508 524 83 1 516 0 81 1 517 44540
 296 117 0 515 525 510 526 81 2 520 44538 454 117 515 527 528 512 529 530 81 1 5
23 44499 465 280 525 528 531 515 532 83 1 524 0 81 1 525 44500 296 280 0 523 533
 517 534 81 2 528 44498 454 280 523 535 536 520 537 538 81 1 531 44483 465 289 5
33 536 539 523 540 83 1 532 0 81 1 533 44484 296 289 0 531 541 525 542 81 2 536
 44482 454 289 531 543 544 528 545 546 81 1 539 44475 465 282 541 544 547 531 54
8 83 1 540 0 81 1 541 44476 296 282 0 539 549 533 550 81 2 544 44474 454 282 539
 551 552 536 553 554 81 1 547 44450 465 308 549 552 555 539 556 83 1 548 0 81 1
 549 44451 296 308 0 547 557 541 558 81 2 552 44449 454 308 547 559 560 544 561
 562 81 1 555 44434 465 274 557 560 563 547 564 83 1 556 0 81 1 557 44435 296 27
4 0 555 565 549 566 81 2 560 44433 454 274 555 567 568 552 569 570 81 1 563 4442
6 465 278 565 568 571 555 572 83 1 564 0 81 1 565 44427 296 278 0 563 573 557 57
4 81 2 568 44425 454 278 563 406 575 560 576 577 81 1 571 44386 465 24 575 573 5
78 563 579 83 1 572 0 81 2 575 44387 454 24 0 571 580 568 581 582 81 1 573 44385
 296 24 571 402 583 565 584 81 1 578 44239 465 304 583 580 0 571 585 83 1 579 0
 81 1 583 44240 296 304 0 578 0 573 586 81 2 580 44238 454 304 578 421 0 575 587
 588 83 1 585 0 80 2 454 589 590 8014 0 0 0 0 3 5 0 0 0 FFFFTFFFFFFFFF2 1 81 3 4
21 83585 429 304 580 416 527 415 591 592 0 83 1 587 0 82 1 588 0 81 3 527 83583
 429 117 520 422 519 421 593 594 0 81 3 415 83587 429 128 496 411 421 495 595 59
6 0 82 1 591 0 82 1 592 18 81 3 495 83682 429 257 417 490 415 390 597 598 0 82 1
 595 0 82 1 596 19 81 1 417 83681 376 257 0 495 411 427 599 82 1 597 0 82 1 598
 16 82 1 599 327 81 1 422 83608 376 117 527 340 600 416 601 81 3 519 83575 429 3
10 512 600 559 527 602 603 0 82 1 593 0 82 1 594 17 81 1 600 83604 376 310 519 3
46 604 422 605 81 3 559 83573 429 308 552 604 543 519 606 607 0 82 1 602 0 82 1
 603 13 81 1 604 83603 376 308 559 608 609 600 610 81 3 543 83569 429 289 536 60
9 551 559 611 612 0 82 1 606 0 82 1 607 12 81 1 609 83601 376 289 543 314 613 60
4 614 81 3 551 83567 429 282 544 613 535 543 615 616 0 82 1 611 0 82 1 612 10 81
 1 613 83600 376 282 551 617 618 609 619 81 3 535 83565 429 280 528 618 567 551
 620 621 0 82 1 615 0 82 1 616 9 81 1 618 83599 376 280 535 285 407 613 622 81 3
 567 83563 429 274 560 407 406 535 623 624 0 82 1 620 0 82 1 621 8 81 1 407 8359
8 376 274 567 625 403 618 626 81 3 406 83561 429 278 568 403 402 567 627 628 0 8
2 1 623 0 82 1 624 7 81 3 402 83559 429 24 573 397 396 406 629 630 0 82 1 627 0
 82 1 628 6 81 3 396 83557 429 134 505 394 0 402 631 632 0 82 1 629 0 82 1 630 5
 82 1 631 0 82 1 632 4 81 1 625 84667 369 274 407 286 297 285 0 82 1 626 327 81
 1 286 84722 284 274 625 0 306 281 633 81 1 297 84662 369 22 481 294 0 625 0 81
 1 285 84668 369 280 618 281 625 617 0 81 1 617 84669 369 282 613 287 285 314 0
 81 1 287 84724 284 282 617 0 281 312 634 81 1 314 84670 369 289 609 312 617 608
 0 81 1 608 84671 369 308 604 309 314 346 0 81 1 309 84726 284 308 608 0 312 341
 635 81 1 346 84672 369 310 600 341 608 340 0 82 5 635 2 1074198647 0 0 0 82 5 6
34 2 1074198647 0 0 0 82 5 633 2 1074198647 0 0 0 82 1 622 327 82 1 619 327 82 1
 614 327 82 1 610 327 82 1 605 327 82 1 601 327 79 255 21 590 SDL/TYSA_REFLECTIV
ITY83 3 586 .466666668653488 .466666668653488 .533333361148834 83 3 584 .4666666
68653488 .466666668653488 .533333361148834 83 1 581 0 82 1 582 0 83 1 576 0 82 1
 577 0 83 3 574 .466666668653488 .466666668653488 .533333361148834 83 1 569 0 82
 1 570 0 83 3 566 .466666668653488 .466666668653488 .533333361148834 83 1 561 0
 82 1 562 0 83 3 558 .466666668653488 .466666668653488 .533333361148834 83 1 553
 0 82 1 554 0 83 3 550 .466666668653488 .466666668653488 .533333361148834 83 1 5
45 0 82 1 546 0 83 3 542 .466666668653488 .466666668653488 .533333361148834 83 1
 537 0 82 1 538 0 83 3 534 .466666668653488 .466666668653488 .533333361148834 83
 1 529 0 82 1 530 0 83 3 526 .466666668653488 .466666668653488 .533333361148834
 83 1 521 0 82 1 522 0 83 3 518 .466666668653488 .466666668653488 .5333333611488
34 83 1 513 0 82 1 514 0 83 3 511 .466666668653488 .466666668653488 .53333336114
8834 83 1 506 0 82 1 507 0 83 3 504 .466666668653488 .466666668653488 .533333361
148834 81 3 435 84057 429 22 0 427 390 431 636 637 0 82 1 499 0 82 1 500 14 82 1
 636 0 82 1 637 20 83 1 497 0 82 1 498 0 83 1 491 0 82 1 492 0 82 1 488 0 82 1 4
89 0 83 3 485 .466666668653488 .466666668653488 .533333361148834 83 1 482 0 82 1
 483 0 83 1 477 0 82 1 478 0 83 1 472 0 82 1 473 0 79 21 469 SDL/TYSA_TRANSLUCEN
CY81 2 457 84468 454 246 0 462 451 0 638 639 83 1 466 0 83 1 638 0 82 1 639 0 79
 15 464 SDL/TYSA_COLOUR83 1 458 0 82 1 459 0 83 3 450 .466666668653488 .46666666
8653488 .533333361148834 83 3 445 .466666668653488 .466666668653488 .53333336114
8834 79 27 442 MONIKER/MONIKER_DATA_ATTRIB82 1 436 327 82 1 433 2 82 1 434 0 82
 5 424 2 1074198647 0 0 0 82 1 423 327 82 1 418 327 79 23 414 SolidEdge/MNKR_ATT
R_CID82 5 409 2 1074198647 0 0 0 82 1 408 327 82 5 405 2 1074198647 0 0 0 82 1 4
04 327 15 59 44388 0 60 24 0 17 60 0 59 57 191 28 52 160 0 135 -17 191 0 59 60 5
4 50 190 159 0 0 -82 5 400 2 1074198647 0 0 0 82 1 398 327 83 3 393 .50588238239
2883 .529411792755127 .549019634723663 82 1 392 801 82 5 388 2 1074198647 0 0 0
 82 1 387 801 82 1 383 801 82 1 379 801 79 17 375 SolidEdge/Display79 16 368 Sol
idEdge/Styles82 5 357 2 1074198647 0 0 0 82 5 353 2 1074198647 0 0 0 17 185 0 34
5 185 185 0 640 138 0 0 +17 640 0 338 640 640 0 185 138 0 0 -15 338 44566 0 640
 134 132 82 5 347 2 1074198647 0 0 0 82 5 343 2 1074198647 0 0 0 82 5 330 2 1074
198647 0 0 0 17 228 0 243 216 205 268 322 226 0 270 +82 5 315 2 1074198647 0 0 0
 15 311 44452 0 641 308 642 17 641 0 311 641 641 0 643 142 0 0 -15 642 44453 0 1
82 308 0 17 182 0 642 182 182 0 644 180 0 0 +17 644 0 258 644 644 0 182 180 0 0
 -15 258 43928 0 644 257 0 17 643 0 129 643 643 0 641 142 0 0 +16 142 43599 0 ?6
43 153 180 140 0 0 1 15 129 43993 0 643 128 0 83 3 300 .505882382392883 .5294117
92755127 .549019634723663 82 5 288 2 1074198647 0 0 0 19 23 81715 0 1 0 11 7 S0
 30 21 75422 0 1 645 5 0 +.001 .01374375774660554 .017 -1 0 0 30 645 75419 0 1 6
46 21 0 +.001 .01374375774660554 -.017 -1 0 0 30 646 75416 0 1 647 645 0 +.001 .
01374375774660554 .017 -1 0 0 30 647 75411 0 1 648 646 0 +.001 .0137437577466055
4 -.017 -1 0 0 30 648 75408 0 1 0 647 0 +.001 .01374375774660554 -.017 -1 0 0 50
 20 66854 0 1 649 4 0 +-.02266305546993485 .0818961542152952 .05054 120469236584
698e-30 -1 0 0 0 -1 50 649 58022 0 1 650 20 0 +.004 .0518175500631178 -.01510072
852878375 -1 0 0 0 1 1850371707708595e-30 50 650 26001 0 1 0 649 0 +.03922483787
499165 -.0545283211158376 -.0151007285287838 -1 0 0 0 -1 0 74 4 CI16 index_map_o
ffset0 0 1 dCCZ20 19 9 0 0 299 462 457 651 385 410 351 2 329 0 0 0 0 0 0 0 0 0 0
 0 81 2 651 45417 652 1 0 15 0 0 653 654 80 2 652 14 655 9000 2 2 2 2 3 6 0 0 0
 FFTFFFFFFFFFFF2 3 81 3 15 84712 14 1 651 2 0 2 656 657 658 83 2 653 1 10 84 255
 20 654 SE 222.0.0.23 Type8680 3 14 659 660 9000 0 0 0 0 3 6 0 0 0 FFTFFFFFFFFFF
F3 3 1 84 38 656 {d58632a1-c669-4bba-ab81-fea49d365505}84 2 657 SE82 1 658 0 79
 25 660 MONIKER/GUID_TABLE_ATTRIB79 22 655 MONIKER/BODY_ID_ATTRIB84 38 16 {54a57
910-9f68-4d1f-993b-446800880c1d}84 2 17 SE82 1 18 2 1 0 
